<svg width="1400" height="980" viewBox="0 0 1400 980" fill="none" xmlns="http://www.w3.org/2000/svg">
  <rect width="1400" height="980" rx="36" fill="#F6EFE7"/>
  <rect x="74" y="78" width="1252" height="824" rx="32" fill="white" stroke="#E2D7C9" stroke-width="4"/>
  <rect x="118" y="118" width="1164" height="200" rx="28" fill="#F3D8C8"/>
  <text x="156" y="190" fill="#8E2D23" font-size="84" font-family="Arial, Source Han Sans SC" font-weight="700">2024.05.27</text>
  <text x="160" y="258" fill="#8E2D23" font-size="42" font-family="Arial, Source Han Sans SC" font-weight="700">第九次中日韩领导人峰会 · 首尔</text>
  <text x="160" y="298" fill="#8E2D23" font-size="28" font-family="Arial, Source Han Sans SC">联合宣言重新启动三边合作，并把议题重心压回功能领域</text>
  <g font-family="Arial, Source Han Sans SC" font-weight="700">
    <rect x="128" y="374" width="340" height="196" rx="28" fill="#FFF7F2" stroke="#D99D8F" stroke-width="3"/>
    <text x="166" y="434" fill="#8E2D23" font-size="34">People</text>
    <text x="166" y="482" fill="#1B2430" font-size="26">人文交流</text>
    <text x="166" y="522" fill="#1B2430" font-size="26">青年与文化往来</text>
    <rect x="530" y="374" width="340" height="196" rx="28" fill="#FFF7F2" stroke="#D99D8F" stroke-width="3"/>
    <text x="568" y="434" fill="#8E2D23" font-size="34">Green</text>
    <text x="568" y="482" fill="#1B2430" font-size="26">可持续发展</text>
    <text x="568" y="522" fill="#1B2430" font-size="26">气候与转型合作</text>
    <rect x="932" y="374" width="340" height="196" rx="28" fill="#FFF7F2" stroke="#D99D8F" stroke-width="3"/>
    <text x="970" y="434" fill="#8E2D23" font-size="34">Trade</text>
    <text x="970" y="482" fill="#1B2430" font-size="26">经贸与供应链</text>
    <text x="970" y="522" fill="#1B2430" font-size="26">区域经济合作</text>
    <rect x="128" y="624" width="340" height="196" rx="28" fill="#FFF7F2" stroke="#D99D8F" stroke-width="3"/>
    <text x="166" y="684" fill="#8E2D23" font-size="34">Health</text>
    <text x="166" y="732" fill="#1B2430" font-size="26">卫生与老龄化</text>
    <text x="166" y="772" fill="#1B2430" font-size="26">民生导向的合作</text>
    <rect x="530" y="624" width="340" height="196" rx="28" fill="#FFF7F2" stroke="#D99D8F" stroke-width="3"/>
    <text x="568" y="684" fill="#8E2D23" font-size="34">Tech</text>
    <text x="568" y="732" fill="#1B2430" font-size="26">科技与数字化</text>
    <text x="568" y="772" fill="#1B2430" font-size="26">创新与转型</text>
    <rect x="932" y="624" width="340" height="196" rx="28" fill="#FFF7F2" stroke="#D99D8F" stroke-width="3"/>
    <text x="970" y="684" fill="#8E2D23" font-size="34">Safety</text>
    <text x="970" y="732" fill="#1B2430" font-size="26">灾害与安全</text>
    <text x="970" y="772" fill="#1B2430" font-size="26">实用合作而非军事协调</text>
  </g>
</svg>
